<svg width="198" height="38" viewBox="0 0 198 38" fill="none" xmlns="http://www.w3.org/2000/svg">
<path d="M34.31 30V10.44H39.14L42.29 19.14C42.49 19.72 42.68 20.32 42.86 20.94C43.04 21.54 43.23 22.14 43.43 22.74H43.55C43.75 22.14 43.93 21.54 44.09 20.94C44.27 20.32 44.46 19.72 44.66 19.14L47.75 10.44H52.55V30H48.53V22.83C48.53 22.35 48.55 21.82 48.59 21.24C48.63 20.66 48.68 20.08 48.74 19.5C48.8 18.9 48.86 18.32 48.92 17.76C48.98 17.18 49.04 16.65 49.1 16.17H48.98L47.39 20.82L44.6 28.29H42.17L39.38 20.82L37.82 16.17H37.7C37.76 16.65 37.82 17.18 37.88 17.76C37.94 18.32 38 18.9 38.06 19.5C38.12 20.08 38.17 20.66 38.21 21.24C38.25 21.82 38.27 22.35 38.27 22.83V30H34.31ZM64.0916 30.36C63.1516 30.36 62.2416 30.19 61.3616 29.85C60.4816 29.49 59.7016 28.98 59.0216 28.32C58.3616 27.66 57.8316 26.85 57.4316 25.89C57.0316 24.91 56.8316 23.8 56.8316 22.56C56.8316 21.32 57.0316 20.22 57.4316 19.26C57.8316 18.28 58.3616 17.46 59.0216 16.8C59.7016 16.14 60.4816 15.64 61.3616 15.3C62.2416 14.94 63.1516 14.76 64.0916 14.76C65.0316 14.76 65.9316 14.94 66.7916 15.3C67.6716 15.64 68.4416 16.14 69.1016 16.8C69.7816 17.46 70.3216 18.28 70.7216 19.26C71.1216 20.22 71.3216 21.32 71.3216 22.56C71.3216 23.8 71.1216 24.91 70.7216 25.89C70.3216 26.85 69.7816 27.66 69.1016 28.32C68.4416 28.98 67.6716 29.49 66.7916 29.85C65.9316 30.19 65.0316 30.36 64.0916 30.36ZM64.0916 26.79C64.9916 26.79 65.6716 26.41 66.1316 25.65C66.5916 24.89 66.8216 23.86 66.8216 22.56C66.8216 21.26 66.5916 20.23 66.1316 19.47C65.6716 18.71 64.9916 18.33 64.0916 18.33C63.1716 18.33 62.4816 18.71 62.0216 19.47C61.5816 20.23 61.3616 21.26 61.3616 22.56C61.3616 23.86 61.5816 24.89 62.0216 25.65C62.4816 26.41 63.1716 26.79 64.0916 26.79ZM78.4278 30L73.4178 15.12H77.8578L79.7778 22.14C79.9778 22.88 80.1678 23.64 80.3478 24.42C80.5478 25.18 80.7478 25.95 80.9478 26.73H81.0678C81.2478 25.95 81.4278 25.18 81.6078 24.42C81.8078 23.64 82.0078 22.88 82.2078 22.14L84.1578 15.12H88.3878L83.5278 30H78.4278ZM91.6109 30V15.12H96.0209V30H91.6109ZM93.8009 12.93C93.0609 12.93 92.4509 12.72 91.9709 12.3C91.4909 11.86 91.2509 11.3 91.2509 10.62C91.2509 9.94 91.4909 9.39 91.9709 8.97C92.4509 8.55 93.0609 8.34 93.8009 8.34C94.5609 8.34 95.1709 8.55 95.6309 8.97C96.1109 9.39 96.3509 9.94 96.3509 10.62C96.3509 11.3 96.1109 11.86 95.6309 12.3C95.1709 12.72 94.5609 12.93 93.8009 12.93ZM107.462 30.36C106.402 30.36 105.412 30.19 104.492 29.85C103.572 29.49 102.772 28.98 102.092 28.32C101.412 27.64 100.882 26.82 100.502 25.86C100.122 24.9 99.932 23.8 99.932 22.56C99.932 21.36 100.132 20.28 100.532 19.32C100.932 18.34 101.452 17.52 102.092 16.86C102.752 16.18 103.502 15.66 104.342 15.3C105.182 14.94 106.052 14.76 106.952 14.76C108.012 14.76 108.932 14.94 109.712 15.3C110.512 15.66 111.172 16.16 111.692 16.8C112.232 17.44 112.632 18.2 112.892 19.08C113.152 19.94 113.282 20.88 113.282 21.9C113.282 22.3 113.262 22.68 113.222 23.04C113.182 23.4 113.142 23.67 113.102 23.85H104.192C104.392 24.93 104.832 25.73 105.512 26.25C106.212 26.75 107.062 27 108.062 27C109.122 27 110.192 26.67 111.272 26.01L112.742 28.68C111.982 29.2 111.132 29.61 110.192 29.91C109.272 30.21 108.362 30.36 107.462 30.36ZM104.162 20.94H109.532C109.532 20.1 109.342 19.42 108.962 18.9C108.582 18.38 107.942 18.12 107.042 18.12C106.342 18.12 105.722 18.35 105.182 18.81C104.662 19.27 104.322 19.98 104.162 20.94ZM122.973 30.36C121.693 30.36 120.413 30.13 119.133 29.67C117.873 29.19 116.743 28.48 115.743 27.54L118.263 24.51C118.963 25.11 119.733 25.6 120.573 25.98C121.433 26.36 122.273 26.55 123.093 26.55C124.013 26.55 124.693 26.38 125.133 26.04C125.593 25.7 125.823 25.24 125.823 24.66C125.823 24.36 125.753 24.1 125.613 23.88C125.493 23.66 125.303 23.47 125.043 23.31C124.803 23.13 124.503 22.97 124.143 22.83C123.803 22.67 123.423 22.5 123.003 22.32L120.453 21.24C119.953 21.04 119.463 20.78 118.983 20.46C118.523 20.14 118.103 19.77 117.723 19.35C117.363 18.91 117.073 18.41 116.853 17.85C116.633 17.27 116.523 16.62 116.523 15.9C116.523 15.1 116.693 14.35 117.033 13.65C117.373 12.93 117.853 12.31 118.473 11.79C119.093 11.25 119.823 10.83 120.663 10.53C121.523 10.23 122.463 10.08 123.483 10.08C124.623 10.08 125.743 10.3 126.843 10.74C127.963 11.18 128.943 11.82 129.783 12.66L127.533 15.45C126.893 14.95 126.253 14.57 125.613 14.31C124.973 14.03 124.263 13.89 123.483 13.89C122.723 13.89 122.113 14.05 121.653 14.37C121.213 14.67 120.993 15.1 120.993 15.66C120.993 15.96 121.063 16.22 121.203 16.44C121.363 16.64 121.573 16.83 121.833 17.01C122.113 17.17 122.433 17.33 122.793 17.49C123.153 17.63 123.543 17.79 123.963 17.97L126.483 18.99C127.683 19.47 128.623 20.13 129.303 20.97C130.003 21.81 130.353 22.92 130.353 24.3C130.353 25.12 130.183 25.9 129.843 26.64C129.523 27.36 129.043 28 128.403 28.56C127.783 29.1 127.013 29.54 126.093 29.88C125.173 30.2 124.133 30.36 122.973 30.36ZM140.693 30.36C139.653 30.36 138.683 30.19 137.783 29.85C136.903 29.49 136.133 28.98 135.473 28.32C134.813 27.66 134.293 26.85 133.913 25.89C133.533 24.91 133.343 23.8 133.343 22.56C133.343 21.32 133.553 20.22 133.973 19.26C134.393 18.28 134.953 17.46 135.653 16.8C136.373 16.14 137.203 15.64 138.143 15.3C139.083 14.94 140.063 14.76 141.083 14.76C142.003 14.76 142.813 14.91 143.513 15.21C144.233 15.51 144.873 15.89 145.433 16.35L143.363 19.2C142.663 18.62 141.993 18.33 141.353 18.33C140.273 18.33 139.423 18.71 138.803 19.47C138.183 20.23 137.873 21.26 137.873 22.56C137.873 23.86 138.183 24.89 138.803 25.65C139.443 26.41 140.243 26.79 141.203 26.79C141.683 26.79 142.143 26.69 142.583 26.49C143.043 26.27 143.473 26.01 143.873 25.71L145.613 28.59C144.873 29.23 144.073 29.69 143.213 29.97C142.353 30.23 141.513 30.36 140.693 30.36ZM152.574 30.36C151.894 30.36 151.274 30.24 150.714 30C150.174 29.78 149.714 29.47 149.334 29.07C148.954 28.65 148.654 28.17 148.434 27.63C148.234 27.09 148.134 26.5 148.134 25.86C148.134 24.3 148.794 23.08 150.114 22.2C151.434 21.32 153.564 20.73 156.504 20.43C156.464 19.77 156.264 19.25 155.904 18.87C155.564 18.47 154.984 18.27 154.164 18.27C153.524 18.27 152.884 18.39 152.244 18.63C151.624 18.87 150.954 19.2 150.234 19.62L148.644 16.71C149.604 16.13 150.604 15.66 151.644 15.3C152.704 14.94 153.824 14.76 155.004 14.76C156.924 14.76 158.384 15.31 159.384 16.41C160.404 17.49 160.914 19.18 160.914 21.48V30H157.314L157.014 28.47H156.894C156.254 29.03 155.584 29.49 154.884 29.85C154.184 30.19 153.414 30.36 152.574 30.36ZM154.074 26.94C154.574 26.94 155.004 26.83 155.364 26.61C155.724 26.39 156.104 26.08 156.504 25.68V23.07C154.944 23.29 153.864 23.61 153.264 24.03C152.664 24.45 152.364 24.95 152.364 25.53C152.364 26.01 152.514 26.37 152.814 26.61C153.134 26.83 153.554 26.94 154.074 26.94ZM165.545 35.52V15.12H169.145L169.445 16.59H169.565C170.145 16.07 170.795 15.64 171.515 15.3C172.255 14.94 173.015 14.76 173.795 14.76C174.695 14.76 175.505 14.94 176.225 15.3C176.945 15.66 177.555 16.17 178.055 16.83C178.555 17.49 178.935 18.29 179.195 19.23C179.475 20.15 179.615 21.18 179.615 22.32C179.615 23.6 179.435 24.74 179.075 25.74C178.735 26.72 178.265 27.56 177.665 28.26C177.085 28.94 176.415 29.46 175.655 29.82C174.915 30.18 174.145 30.36 173.345 30.36C172.705 30.36 172.085 30.23 171.485 29.97C170.885 29.69 170.325 29.3 169.805 28.8L169.955 31.17V35.52H165.545ZM172.325 26.76C173.085 26.76 173.735 26.42 174.275 25.74C174.815 25.04 175.085 23.92 175.085 22.38C175.085 19.7 174.225 18.36 172.505 18.36C171.645 18.36 170.795 18.81 169.955 19.71V25.8C170.355 26.16 170.755 26.41 171.155 26.55C171.555 26.69 171.945 26.76 172.325 26.76ZM190.302 30.36C189.242 30.36 188.252 30.19 187.332 29.85C186.412 29.49 185.612 28.98 184.932 28.32C184.252 27.64 183.722 26.82 183.342 25.86C182.962 24.9 182.772 23.8 182.772 22.56C182.772 21.36 182.972 20.28 183.372 19.32C183.772 18.34 184.292 17.52 184.932 16.86C185.592 16.18 186.342 15.66 187.182 15.3C188.022 14.94 188.892 14.76 189.792 14.76C190.852 14.76 191.772 14.94 192.552 15.3C193.352 15.66 194.012 16.16 194.532 16.8C195.072 17.44 195.472 18.2 195.732 19.08C195.992 19.94 196.122 20.88 196.122 21.9C196.122 22.3 196.102 22.68 196.062 23.04C196.022 23.4 195.982 23.67 195.942 23.85H187.032C187.232 24.93 187.672 25.73 188.352 26.25C189.052 26.75 189.902 27 190.902 27C191.962 27 193.032 26.67 194.112 26.01L195.582 28.68C194.822 29.2 193.972 29.61 193.032 29.91C192.112 30.21 191.202 30.36 190.302 30.36ZM187.002 20.94H192.372C192.372 20.1 192.182 19.42 191.802 18.9C191.422 18.38 190.782 18.12 189.882 18.12C189.182 18.12 188.562 18.35 188.022 18.81C187.502 19.27 187.162 19.98 187.002 20.94Z" fill="#FFFAFA"/>
<path d="M21.0803 20.2224L2.36916 10.8762C2.11674 10.7594 1.83908 10.7075 1.56144 10.7252C1.28381 10.7429 1.01503 10.8298 0.779572 10.9778C0.544111 11.1258 0.349447 11.3303 0.2133 11.5727C0.077153 11.815 0.00384762 12.0876 5.65776e-05 12.3655V31.0498C-0.00230074 31.335 0.0690426 31.6161 0.207191 31.8658C0.34534 32.1154 0.545622 32.3253 0.788679 32.475C1.03174 32.6247 1.30935 32.7093 1.59468 32.7205C1.88002 32.7317 2.16342 32.6692 2.41751 32.5391L21.0803 23.1929C21.3567 23.0542 21.5892 22.8415 21.7516 22.5785C21.914 22.3156 22 22.0126 22 21.7036C22 21.3946 21.914 21.0917 21.7516 20.8287C21.5892 20.5657 21.3567 20.353 21.0803 20.2143V20.2224Z" fill="#E50914"/>
<path d="M21.0803 15.5006L2.36916 6.15439C2.11674 6.03756 1.83908 5.98566 1.56144 6.0034C1.28381 6.02115 1.01503 6.10798 0.779572 6.25599C0.544111 6.40401 0.349447 6.60851 0.2133 6.85087C0.077153 7.09324 0.00384762 7.36577 5.65776e-05 7.64367V26.328C-0.00230074 26.6132 0.0690426 26.8943 0.207191 27.144C0.34534 27.3936 0.545622 27.6035 0.788679 27.7532C1.03174 27.9029 1.30935 27.9875 1.59468 27.9987C1.88002 28.0099 2.16342 27.9474 2.41751 27.8173L21.0803 18.4711C21.3567 18.3324 21.5892 18.1197 21.7516 17.8567C21.914 17.5938 22 17.2908 22 16.9818C22 16.6728 21.914 16.3699 21.7516 16.1069C21.5892 15.8439 21.3567 15.6312 21.0803 15.4925V15.5006Z" fill="white"/>
</svg>
