<svg width="15" height="15" viewBox="0 0 15 15" fill="none" xmlns="http://www.w3.org/2000/svg">
<path d="M13.3019 5.17237L9.58269 4.63184L7.92009 1.26124C7.87468 1.16895 7.79998 1.09424 7.70769 1.04883C7.47624 0.934576 7.19499 1.02979 7.07927 1.26124L5.41668 4.63184L1.69744 5.17237C1.5949 5.18702 1.50115 5.23536 1.42937 5.3086C1.3426 5.39779 1.29478 5.51778 1.29643 5.64221C1.29808 5.76663 1.34905 5.88531 1.43816 5.97217L4.12908 8.59571L3.49334 12.3003C3.47843 12.3865 3.48796 12.4751 3.52086 12.5561C3.55376 12.6372 3.60871 12.7074 3.67947 12.7588C3.75023 12.8102 3.83398 12.8407 3.92122 12.8469C4.00845 12.8531 4.09568 12.8348 4.17302 12.794L7.49968 11.0449L10.8263 12.794C10.9172 12.8423 11.0226 12.8584 11.1237 12.8408C11.3786 12.7969 11.55 12.5552 11.506 12.3003L10.8703 8.59571L13.5612 5.97217C13.6344 5.9004 13.6828 5.80665 13.6974 5.70411C13.737 5.44776 13.5583 5.21045 13.3019 5.17237Z" fill="#E4BB24"/>
</svg>
